<mxfile host="app.diagrams.net" agent="Mozilla/5.0 (Windows NT 10.0; Win64; x64; rv:134.0) Gecko/20100101 Firefox/134.0" modified="2025-02-06T08:06:00.753Z" version="24.4.7" etag="bhDS7WuEFcULP8Gi0gkK" type="github">
  <diagram name="Página-1" id="RNlY2zAJqFi1zm7Q7Wgu">
    <mxGraphModel dx="1290" dy="537" grid="1" gridSize="10" guides="1" tooltips="1" connect="1" arrows="1" fold="1" page="1" pageScale="1" pageWidth="827" pageHeight="1169" math="0" shadow="0">
      <root>
        <mxCell id="0" />
        <mxCell id="1" parent="0" />
        <mxCell id="7FCHtqIl2WXOdxlE5oJK-1" value="&lt;font style=&quot;font-size: 14px;&quot;&gt;&lt;b&gt;AWS Cloud&lt;/b&gt;&lt;/font&gt;" style="sketch=0;outlineConnect=0;gradientColor=none;html=1;whiteSpace=wrap;fontSize=12;fontStyle=0;shape=mxgraph.aws4.group;grIcon=mxgraph.aws4.group_aws_cloud;strokeColor=#AAB7B8;fillColor=none;verticalAlign=top;align=left;spacingLeft=30;fontColor=#AAB7B8;dashed=0;" parent="1" vertex="1">
          <mxGeometry x="40" y="45" width="1120" height="1080" as="geometry" />
        </mxCell>
        <mxCell id="7FCHtqIl2WXOdxlE5oJK-9" value="Public subnet (vpc-mensagl-2025-sebastian-subnet-public2-us-east-1b)&lt;div&gt;10.225.2.0/24&lt;/div&gt;" style="points=[[0,0],[0.25,0],[0.5,0],[0.75,0],[1,0],[1,0.25],[1,0.5],[1,0.75],[1,1],[0.75,1],[0.5,1],[0.25,1],[0,1],[0,0.75],[0,0.5],[0,0.25]];outlineConnect=0;gradientColor=none;html=1;whiteSpace=wrap;fontSize=12;fontStyle=0;container=1;pointerEvents=0;collapsible=0;recursiveResize=0;shape=mxgraph.aws4.group;grIcon=mxgraph.aws4.group_security_group;grStroke=0;strokeColor=#7AA116;fillColor=#F2F6E8;verticalAlign=top;align=left;spacingLeft=30;fontColor=#248814;dashed=0;" parent="1" vertex="1">
          <mxGeometry x="650" y="160" width="500" height="950" as="geometry" />
        </mxCell>
        <mxCell id="7FCHtqIl2WXOdxlE5oJK-64" value="" style="sketch=0;points=[[0,0,0],[0.25,0,0],[0.5,0,0],[0.75,0,0],[1,0,0],[0,1,0],[0.25,1,0],[0.5,1,0],[0.75,1,0],[1,1,0],[0,0.25,0],[0,0.5,0],[0,0.75,0],[1,0.25,0],[1,0.5,0],[1,0.75,0]];outlineConnect=0;fontColor=#232F3E;fillColor=#ED7100;strokeColor=#ffffff;dashed=0;verticalLabelPosition=bottom;verticalAlign=top;align=center;html=1;fontSize=12;fontStyle=0;aspect=fixed;shape=mxgraph.aws4.resourceIcon;resIcon=mxgraph.aws4.compute;" parent="7FCHtqIl2WXOdxlE5oJK-9" vertex="1">
          <mxGeometry x="185" y="170" width="100" height="100" as="geometry" />
        </mxCell>
        <mxCell id="7FCHtqIl2WXOdxlE5oJK-3" value="&lt;font style=&quot;font-size: 14px;&quot;&gt;&lt;b&gt;Region (us-east-1)&lt;/b&gt;&lt;/font&gt;" style="points=[[0,0],[0.25,0],[0.5,0],[0.75,0],[1,0],[1,0.25],[1,0.5],[1,0.75],[1,1],[0.75,1],[0.5,1],[0.25,1],[0,1],[0,0.75],[0,0.5],[0,0.25]];outlineConnect=0;gradientColor=none;html=1;whiteSpace=wrap;fontSize=12;fontStyle=0;container=1;pointerEvents=0;collapsible=0;recursiveResize=0;shape=mxgraph.aws4.group;grIcon=mxgraph.aws4.group_region;strokeColor=#00A4A6;fillColor=none;verticalAlign=top;align=left;spacingLeft=30;fontColor=#147EBA;dashed=1;" parent="7FCHtqIl2WXOdxlE5oJK-9" vertex="1">
          <mxGeometry x="-580" y="-90" width="1080" height="1040" as="geometry" />
        </mxCell>
        <mxCell id="7FCHtqIl2WXOdxlE5oJK-5" value="&lt;font style=&quot;font-size: 14px;&quot;&gt;&lt;b&gt;VPC (vpc-mensagl-2025-sebastian)&lt;/b&gt;&lt;/font&gt;" style="points=[[0,0],[0.25,0],[0.5,0],[0.75,0],[1,0],[1,0.25],[1,0.5],[1,0.75],[1,1],[0.75,1],[0.5,1],[0.25,1],[0,1],[0,0.75],[0,0.5],[0,0.25]];outlineConnect=0;gradientColor=none;html=1;whiteSpace=wrap;fontSize=12;fontStyle=0;container=1;pointerEvents=0;collapsible=0;recursiveResize=0;shape=mxgraph.aws4.group;grIcon=mxgraph.aws4.group_vpc2;strokeColor=#8C4FFF;fillColor=none;verticalAlign=top;align=left;spacingLeft=30;fontColor=#AAB7B8;dashed=0;" parent="7FCHtqIl2WXOdxlE5oJK-3" vertex="1">
          <mxGeometry x="30" y="30" width="1040" height="1000" as="geometry" />
        </mxCell>
        <mxCell id="7FCHtqIl2WXOdxlE5oJK-7" value="&lt;font style=&quot;font-size: 14px;&quot;&gt;&lt;b&gt;Availability Zone 2 (us-east-1b)&lt;/b&gt;&lt;/font&gt;" style="fillColor=none;strokeColor=#147EBA;dashed=1;verticalAlign=top;fontStyle=0;fontColor=#147EBA;whiteSpace=wrap;html=1;" parent="7FCHtqIl2WXOdxlE5oJK-5" vertex="1">
          <mxGeometry x="540" y="30" width="490" height="960" as="geometry" />
        </mxCell>
        <mxCell id="7FCHtqIl2WXOdxlE5oJK-62" value="" style="sketch=0;points=[[0,0,0],[0.25,0,0],[0.5,0,0],[0.75,0,0],[1,0,0],[0,1,0],[0.25,1,0],[0.5,1,0],[0.75,1,0],[1,1,0],[0,0.25,0],[0,0.5,0],[0,0.75,0],[1,0.25,0],[1,0.5,0],[1,0.75,0]];outlineConnect=0;fontColor=#232F3E;fillColor=#ED7100;strokeColor=#ffffff;dashed=0;verticalLabelPosition=bottom;verticalAlign=top;align=center;html=1;fontSize=12;fontStyle=0;aspect=fixed;shape=mxgraph.aws4.resourceIcon;resIcon=mxgraph.aws4.compute;" parent="7FCHtqIl2WXOdxlE5oJK-5" vertex="1">
          <mxGeometry x="735" y="230" width="100" height="100" as="geometry" />
        </mxCell>
        <mxCell id="7FCHtqIl2WXOdxlE5oJK-70" value="&lt;font style=&quot;font-size: 14px;&quot;&gt;10.225.2.10&lt;/font&gt;" style="rounded=1;arcSize=9;align=left;spacingLeft=5;strokeColor=#4C9AFF;html=1;strokeWidth=2;fontSize=12" parent="7FCHtqIl2WXOdxlE5oJK-5" vertex="1">
          <mxGeometry x="740" y="190" width="90" height="33" as="geometry" />
        </mxCell>
        <mxCell id="7FCHtqIl2WXOdxlE5oJK-12" value="Private subnet (vpc-mensagl-2025-sebastian-subnet-private2-us-east-1b)&lt;div&gt;10.225.4.0/24&lt;/div&gt;" style="points=[[0,0],[0.25,0],[0.5,0],[0.75,0],[1,0],[1,0.25],[1,0.5],[1,0.75],[1,1],[0.75,1],[0.5,1],[0.25,1],[0,1],[0,0.75],[0,0.5],[0,0.25]];outlineConnect=0;gradientColor=none;html=1;whiteSpace=wrap;fontSize=12;fontStyle=0;container=0;pointerEvents=0;collapsible=0;recursiveResize=0;shape=mxgraph.aws4.group;grIcon=mxgraph.aws4.group_security_group;grStroke=0;strokeColor=#00A4A6;fillColor=#E6F6F7;verticalAlign=top;align=left;spacingLeft=30;fontColor=#147EBA;dashed=0;" parent="1" vertex="1">
          <mxGeometry x="650" y="610" width="470" height="470" as="geometry" />
        </mxCell>
        <mxCell id="7FCHtqIl2WXOdxlE5oJK-44" value="&lt;font style=&quot;font-size: 14px;&quot;&gt;Cluster&lt;/font&gt;&lt;div&gt;&lt;font style=&quot;font-size: 14px;&quot;&gt;cms&lt;/font&gt;&lt;/div&gt;" style="fillColor=none;strokeColor=#5A6C86;dashed=1;verticalAlign=top;fontStyle=0;fontColor=#5A6C86;whiteSpace=wrap;html=1;strokeWidth=2;" parent="1" vertex="1">
          <mxGeometry x="655" y="660" width="460" height="210" as="geometry" />
        </mxCell>
        <mxCell id="7FCHtqIl2WXOdxlE5oJK-43" value="Cluster&lt;div&gt;mensajería&lt;/div&gt;" style="fillColor=none;strokeColor=#5A6C86;dashed=1;verticalAlign=top;fontStyle=0;fontColor=#5A6C86;whiteSpace=wrap;html=1;" parent="1" vertex="1">
          <mxGeometry x="150" y="660" width="460" height="210" as="geometry" />
        </mxCell>
        <mxCell id="7FCHtqIl2WXOdxlE5oJK-6" value="&lt;font style=&quot;font-size: 14px;&quot;&gt;&lt;b&gt;Availability Zone 1 (us-east-1a)&lt;/b&gt;&lt;/font&gt;" style="fillColor=none;strokeColor=#147EBA;dashed=1;verticalAlign=top;fontStyle=0;fontColor=#147EBA;whiteSpace=wrap;html=1;" parent="1" vertex="1">
          <mxGeometry x="130" y="130" width="500" height="960" as="geometry" />
        </mxCell>
        <mxCell id="7FCHtqIl2WXOdxlE5oJK-8" value="Public subnet (vpc-mensagl-2025-sebastian-subnet-public1-us-east-1a)&lt;div&gt;10.225.1.0/24&lt;/div&gt;" style="points=[[0,0],[0.25,0],[0.5,0],[0.75,0],[1,0],[1,0.25],[1,0.5],[1,0.75],[1,1],[0.75,1],[0.5,1],[0.25,1],[0,1],[0,0.75],[0,0.5],[0,0.25]];outlineConnect=0;gradientColor=none;html=1;whiteSpace=wrap;fontSize=12;fontStyle=0;container=1;pointerEvents=0;collapsible=0;recursiveResize=0;shape=mxgraph.aws4.group;grIcon=mxgraph.aws4.group_security_group;grStroke=0;strokeColor=#7AA116;fillColor=#F2F6E8;verticalAlign=top;align=left;spacingLeft=30;fontColor=#248814;dashed=0;" parent="1" vertex="1">
          <mxGeometry x="140" y="160" width="480" height="440" as="geometry" />
        </mxCell>
        <mxCell id="7FCHtqIl2WXOdxlE5oJK-63" value="" style="sketch=0;points=[[0,0,0],[0.25,0,0],[0.5,0,0],[0.75,0,0],[1,0,0],[0,1,0],[0.25,1,0],[0.5,1,0],[0.75,1,0],[1,1,0],[0,0.25,0],[0,0.5,0],[0,0.75,0],[1,0.25,0],[1,0.5,0],[1,0.75,0]];outlineConnect=0;fontColor=#232F3E;fillColor=#ED7100;strokeColor=#ffffff;dashed=0;verticalLabelPosition=bottom;verticalAlign=top;align=center;html=1;fontSize=12;fontStyle=0;aspect=fixed;shape=mxgraph.aws4.resourceIcon;resIcon=mxgraph.aws4.compute;" parent="7FCHtqIl2WXOdxlE5oJK-8" vertex="1">
          <mxGeometry x="190" y="170" width="100" height="100" as="geometry" />
        </mxCell>
        <mxCell id="7FCHtqIl2WXOdxlE5oJK-69" value="&lt;font style=&quot;font-size: 14px;&quot;&gt;10.225.1.10&lt;/font&gt;" style="rounded=1;arcSize=9;align=left;spacingLeft=5;strokeColor=#4C9AFF;html=1;strokeWidth=2;fontSize=12" parent="7FCHtqIl2WXOdxlE5oJK-8" vertex="1">
          <mxGeometry x="197.5" y="130" width="92.5" height="33" as="geometry" />
        </mxCell>
        <mxCell id="7FCHtqIl2WXOdxlE5oJK-78" value="Dominio" style="fillColor=none;strokeColor=none;html=1;fontSize=12;fontStyle=0;align=left;fontColor=#596780;fontStyle=1;fontSize=11;labelBackgroundColor=light-dark(#ffffff, #006352);" parent="7FCHtqIl2WXOdxlE5oJK-8" vertex="1">
          <mxGeometry x="155" y="340" width="166" height="20" as="geometry" />
        </mxCell>
        <mxCell id="7FCHtqIl2WXOdxlE5oJK-79" value="&lt;div&gt;srestrepoj-proxyzona1.duckdns.org&lt;/div&gt;" style="rounded=1;arcSize=9;align=left;spacingLeft=5;strokeColor=#4C9AFF;html=1;strokeWidth=2;fontSize=16;whiteSpace=wrap;" parent="7FCHtqIl2WXOdxlE5oJK-8" vertex="1">
          <mxGeometry x="155" y="360" width="265" height="40" as="geometry" />
        </mxCell>
        <mxCell id="7FCHtqIl2WXOdxlE5oJK-30" value="Proxy inverso&lt;div&gt;(proxy-zona1)&lt;/div&gt;" style="text;strokeColor=none;fillColor=none;html=1;fontSize=24;fontStyle=1;verticalAlign=middle;align=center;" parent="7FCHtqIl2WXOdxlE5oJK-8" vertex="1">
          <mxGeometry x="190" y="280" width="100" height="40" as="geometry" />
        </mxCell>
        <mxCell id="7FCHtqIl2WXOdxlE5oJK-10" value="Private subnet (vpc-mensagl-2025-sebastian-subnet-private1-us-east-1a)&lt;div&gt;10.225.3.0/24&lt;/div&gt;" style="points=[[0,0],[0.25,0],[0.5,0],[0.75,0],[1,0],[1,0.25],[1,0.5],[1,0.75],[1,1],[0.75,1],[0.5,1],[0.25,1],[0,1],[0,0.75],[0,0.5],[0,0.25]];outlineConnect=0;gradientColor=none;html=1;whiteSpace=wrap;fontSize=12;fontStyle=0;container=1;pointerEvents=0;collapsible=0;recursiveResize=0;shape=mxgraph.aws4.group;grIcon=mxgraph.aws4.group_security_group;grStroke=0;strokeColor=#00A4A6;fillColor=#E6F6F7;verticalAlign=top;align=left;spacingLeft=30;fontColor=#147EBA;dashed=0;" parent="1" vertex="1">
          <mxGeometry x="140" y="610" width="480" height="470" as="geometry" />
        </mxCell>
        <mxCell id="7FCHtqIl2WXOdxlE5oJK-39" value="&lt;font style=&quot;font-size: 15px;&quot;&gt;Servidor mensajería&lt;/font&gt;&lt;div&gt;&lt;font style=&quot;font-size: 15px;&quot;&gt;(mensajeria-1)&lt;/font&gt;&lt;/div&gt;" style="text;html=1;align=center;verticalAlign=middle;whiteSpace=wrap;rounded=0;" parent="7FCHtqIl2WXOdxlE5oJK-10" vertex="1">
          <mxGeometry x="30" y="220" width="150" height="30" as="geometry" />
        </mxCell>
        <mxCell id="7FCHtqIl2WXOdxlE5oJK-40" value="&lt;font style=&quot;font-size: 15px;&quot;&gt;Servidor mensajería&lt;/font&gt;&lt;div&gt;&lt;font style=&quot;font-size: 15px;&quot;&gt;(mensajeria-2)&lt;/font&gt;&lt;/div&gt;" style="text;html=1;align=center;verticalAlign=middle;whiteSpace=wrap;rounded=0;" parent="7FCHtqIl2WXOdxlE5oJK-10" vertex="1">
          <mxGeometry x="300" y="220" width="150" height="30" as="geometry" />
        </mxCell>
        <mxCell id="7FCHtqIl2WXOdxlE5oJK-61" value="" style="sketch=0;points=[[0,0,0],[0.25,0,0],[0.5,0,0],[0.75,0,0],[1,0,0],[0,1,0],[0.25,1,0],[0.5,1,0],[0.75,1,0],[1,1,0],[0,0.25,0],[0,0.5,0],[0,0.75,0],[1,0.25,0],[1,0.5,0],[1,0.75,0]];outlineConnect=0;fontColor=#232F3E;fillColor=#ED7100;strokeColor=#ffffff;dashed=0;verticalLabelPosition=bottom;verticalAlign=top;align=center;html=1;fontSize=12;fontStyle=0;aspect=fixed;shape=mxgraph.aws4.resourceIcon;resIcon=mxgraph.aws4.compute;" parent="7FCHtqIl2WXOdxlE5oJK-10" vertex="1">
          <mxGeometry x="325" y="100" width="100" height="100" as="geometry" />
        </mxCell>
        <mxCell id="7FCHtqIl2WXOdxlE5oJK-75" value="&lt;font style=&quot;font-size: 14px;&quot;&gt;10.225.3.10&lt;/font&gt;" style="rounded=1;arcSize=9;align=left;spacingLeft=5;strokeColor=#4C9AFF;html=1;strokeWidth=2;fontSize=12" parent="7FCHtqIl2WXOdxlE5oJK-10" vertex="1">
          <mxGeometry x="60" y="280" width="90" height="33" as="geometry" />
        </mxCell>
        <mxCell id="7FCHtqIl2WXOdxlE5oJK-76" value="&lt;font style=&quot;font-size: 14px;&quot;&gt;10.225.3.11&lt;/font&gt;" style="rounded=1;arcSize=9;align=left;spacingLeft=5;strokeColor=#4C9AFF;html=1;strokeWidth=2;fontSize=12" parent="7FCHtqIl2WXOdxlE5oJK-10" vertex="1">
          <mxGeometry x="330" y="280" width="90" height="33" as="geometry" />
        </mxCell>
        <mxCell id="7FCHtqIl2WXOdxlE5oJK-71" value="&lt;font style=&quot;font-size: 14px;&quot;&gt;10.225.3.20&lt;/font&gt;" style="rounded=1;arcSize=9;align=left;spacingLeft=5;strokeColor=#4C9AFF;html=1;strokeWidth=2;fontSize=12" parent="7FCHtqIl2WXOdxlE5oJK-10" vertex="1">
          <mxGeometry x="60" y="60" width="90" height="33" as="geometry" />
        </mxCell>
        <mxCell id="7FCHtqIl2WXOdxlE5oJK-72" value="&lt;font style=&quot;font-size: 14px;&quot;&gt;10.225.3.30&lt;/font&gt;" style="rounded=1;arcSize=9;align=left;spacingLeft=5;strokeColor=#4C9AFF;html=1;strokeWidth=2;fontSize=12" parent="7FCHtqIl2WXOdxlE5oJK-10" vertex="1">
          <mxGeometry x="330" y="60" width="90" height="33" as="geometry" />
        </mxCell>
        <mxCell id="7FCHtqIl2WXOdxlE5oJK-82" value="&lt;font style=&quot;font-size: 14px;&quot;&gt;Cluster&lt;/font&gt;&lt;div&gt;&lt;font style=&quot;font-size: 14px;&quot;&gt;mensajería&lt;/font&gt;&lt;/div&gt;" style="fillColor=none;strokeColor=#5A6C86;dashed=1;verticalAlign=top;fontStyle=0;fontColor=#5A6C86;whiteSpace=wrap;html=1;strokeWidth=2;" parent="7FCHtqIl2WXOdxlE5oJK-10" vertex="1">
          <mxGeometry y="45" width="460" height="210" as="geometry" />
        </mxCell>
        <mxCell id="7FCHtqIl2WXOdxlE5oJK-16" value="" style="sketch=0;outlineConnect=0;fontColor=#232F3E;gradientColor=none;fillColor=#8C4FFF;strokeColor=none;dashed=0;verticalLabelPosition=bottom;verticalAlign=top;align=center;html=1;fontSize=12;fontStyle=0;aspect=fixed;pointerEvents=1;shape=mxgraph.aws4.nat_gateway;" parent="1" vertex="1">
          <mxGeometry x="580" y="260" width="110" height="110" as="geometry" />
        </mxCell>
        <mxCell id="7FCHtqIl2WXOdxlE5oJK-19" value="" style="sketch=0;points=[[0,0,0],[0.25,0,0],[0.5,0,0],[0.75,0,0],[1,0,0],[0,1,0],[0.25,1,0],[0.5,1,0],[0.75,1,0],[1,1,0],[0,0.25,0],[0,0.5,0],[0,0.75,0],[1,0.25,0],[1,0.5,0],[1,0.75,0]];outlineConnect=0;fontColor=#232F3E;fillColor=#ED7100;strokeColor=#ffffff;dashed=0;verticalLabelPosition=bottom;verticalAlign=top;align=center;html=1;fontSize=12;fontStyle=0;aspect=fixed;shape=mxgraph.aws4.resourceIcon;resIcon=mxgraph.aws4.compute;" parent="1" vertex="1">
          <mxGeometry x="195" y="715" width="100" height="100" as="geometry" />
        </mxCell>
        <mxCell id="7FCHtqIl2WXOdxlE5oJK-37" value="Gateway NAT" style="text;html=1;align=center;verticalAlign=middle;whiteSpace=wrap;rounded=0;fontStyle=1;fontSize=23;" parent="1" vertex="1">
          <mxGeometry x="605" y="390" width="60" height="30" as="geometry" />
        </mxCell>
        <mxCell id="7FCHtqIl2WXOdxlE5oJK-46" value="CMS soporte&lt;div&gt;(soporte-1)&lt;/div&gt;" style="text;html=1;align=center;verticalAlign=middle;whiteSpace=wrap;rounded=0;fontSize=15;" parent="1" vertex="1">
          <mxGeometry x="670" y="830" width="160" height="40" as="geometry" />
        </mxCell>
        <mxCell id="7FCHtqIl2WXOdxlE5oJK-47" value="CMS soporte&lt;div&gt;(soporte-2)&lt;/div&gt;" style="text;html=1;align=center;verticalAlign=middle;whiteSpace=wrap;rounded=0;fontSize=15;" parent="1" vertex="1">
          <mxGeometry x="940" y="830" width="160" height="40" as="geometry" />
        </mxCell>
        <mxCell id="7FCHtqIl2WXOdxlE5oJK-49" value="Base de datos&lt;div&gt;(sgbd_principal-zona1)&lt;/div&gt;" style="text;html=1;align=center;verticalAlign=middle;whiteSpace=wrap;rounded=0;fontSize=15;" parent="1" vertex="1">
          <mxGeometry x="165" y="1030" width="160" height="40" as="geometry" />
        </mxCell>
        <mxCell id="7FCHtqIl2WXOdxlE5oJK-50" value="Base de datos&lt;div&gt;(sgbd_replica-zona1)&lt;/div&gt;" style="text;html=1;align=center;verticalAlign=middle;whiteSpace=wrap;rounded=0;fontSize=15;" parent="1" vertex="1">
          <mxGeometry x="435" y="1030" width="160" height="40" as="geometry" />
        </mxCell>
        <mxCell id="7FCHtqIl2WXOdxlE5oJK-57" value="" style="sketch=0;points=[[0,0,0],[0.25,0,0],[0.5,0,0],[0.75,0,0],[1,0,0],[0,1,0],[0.25,1,0],[0.5,1,0],[0.75,1,0],[1,1,0],[0,0.25,0],[0,0.5,0],[0,0.75,0],[1,0.25,0],[1,0.5,0],[1,0.75,0]];outlineConnect=0;fontColor=#232F3E;fillColor=#ED7100;strokeColor=#ffffff;dashed=0;verticalLabelPosition=bottom;verticalAlign=top;align=center;html=1;fontSize=12;fontStyle=0;aspect=fixed;shape=mxgraph.aws4.resourceIcon;resIcon=mxgraph.aws4.compute;" parent="1" vertex="1">
          <mxGeometry x="970" y="725" width="100" height="100" as="geometry" />
        </mxCell>
        <mxCell id="7FCHtqIl2WXOdxlE5oJK-58" value="" style="sketch=0;points=[[0,0,0],[0.25,0,0],[0.5,0,0],[0.75,0,0],[1,0,0],[0,1,0],[0.25,1,0],[0.5,1,0],[0.75,1,0],[1,1,0],[0,0.25,0],[0,0.5,0],[0,0.75,0],[1,0.25,0],[1,0.5,0],[1,0.75,0]];outlineConnect=0;fontColor=#232F3E;fillColor=#ED7100;strokeColor=#ffffff;dashed=0;verticalLabelPosition=bottom;verticalAlign=top;align=center;html=1;fontSize=12;fontStyle=0;aspect=fixed;shape=mxgraph.aws4.resourceIcon;resIcon=mxgraph.aws4.compute;" parent="1" vertex="1">
          <mxGeometry x="700" y="725" width="100" height="100" as="geometry" />
        </mxCell>
        <mxCell id="7FCHtqIl2WXOdxlE5oJK-59" value="" style="sketch=0;points=[[0,0,0],[0.25,0,0],[0.5,0,0],[0.75,0,0],[1,0,0],[0,1,0],[0.25,1,0],[0.5,1,0],[0.75,1,0],[1,1,0],[0,0.25,0],[0,0.5,0],[0,0.75,0],[1,0.25,0],[1,0.5,0],[1,0.75,0]];outlineConnect=0;fontColor=#232F3E;fillColor=#ED7100;strokeColor=#ffffff;dashed=0;verticalLabelPosition=bottom;verticalAlign=top;align=center;html=1;fontSize=12;fontStyle=0;aspect=fixed;shape=mxgraph.aws4.resourceIcon;resIcon=mxgraph.aws4.compute;" parent="1" vertex="1">
          <mxGeometry x="195" y="930" width="100" height="100" as="geometry" />
        </mxCell>
        <mxCell id="7FCHtqIl2WXOdxlE5oJK-60" value="" style="sketch=0;points=[[0,0,0],[0.25,0,0],[0.5,0,0],[0.75,0,0],[1,0,0],[0,1,0],[0.25,1,0],[0.5,1,0],[0.75,1,0],[1,1,0],[0,0.25,0],[0,0.5,0],[0,0.75,0],[1,0.25,0],[1,0.5,0],[1,0.75,0]];outlineConnect=0;fontColor=#232F3E;fillColor=#ED7100;strokeColor=#ffffff;dashed=0;verticalLabelPosition=bottom;verticalAlign=top;align=center;html=1;fontSize=12;fontStyle=0;aspect=fixed;shape=mxgraph.aws4.resourceIcon;resIcon=mxgraph.aws4.compute;" parent="1" vertex="1">
          <mxGeometry x="465" y="930" width="100" height="100" as="geometry" />
        </mxCell>
        <mxCell id="7FCHtqIl2WXOdxlE5oJK-73" value="&lt;font style=&quot;font-size: 14px;&quot;&gt;10.225.4.10&lt;/font&gt;" style="rounded=1;arcSize=9;align=left;spacingLeft=5;strokeColor=#4C9AFF;html=1;strokeWidth=2;fontSize=12" parent="1" vertex="1">
          <mxGeometry x="705" y="682" width="90" height="33" as="geometry" />
        </mxCell>
        <mxCell id="7FCHtqIl2WXOdxlE5oJK-74" value="&lt;font style=&quot;font-size: 14px;&quot;&gt;10.225.4.11&lt;/font&gt;" style="rounded=1;arcSize=9;align=left;spacingLeft=5;strokeColor=#4C9AFF;html=1;strokeWidth=2;fontSize=12" parent="1" vertex="1">
          <mxGeometry x="977.5" y="682" width="85" height="33" as="geometry" />
        </mxCell>
        <mxCell id="7FCHtqIl2WXOdxlE5oJK-27" value="" style="sketch=0;points=[[0,0,0],[0.25,0,0],[0.5,0,0],[0.75,0,0],[1,0,0],[0,1,0],[0.25,1,0],[0.5,1,0],[0.75,1,0],[1,1,0],[0,0.25,0],[0,0.5,0],[0,0.75,0],[1,0.25,0],[1,0.5,0],[1,0.75,0]];outlineConnect=0;fontColor=#232F3E;fillColor=#C925D1;strokeColor=#ffffff;dashed=0;verticalLabelPosition=bottom;verticalAlign=top;align=center;html=1;fontSize=12;fontStyle=0;aspect=fixed;shape=mxgraph.aws4.resourceIcon;resIcon=mxgraph.aws4.rds;" parent="1" vertex="1">
          <mxGeometry x="835" y="930" width="100" height="100" as="geometry" />
        </mxCell>
        <mxCell id="7FCHtqIl2WXOdxlE5oJK-52" value="&lt;div&gt;RDS&lt;/div&gt;" style="text;html=1;align=center;verticalAlign=middle;whiteSpace=wrap;rounded=0;fontSize=15;" parent="1" vertex="1">
          <mxGeometry x="805" y="1040" width="160" height="40" as="geometry" />
        </mxCell>
        <mxCell id="7FCHtqIl2WXOdxlE5oJK-77" value="ENDPOINT" style="rounded=1;arcSize=9;align=left;spacingLeft=5;strokeColor=#4C9AFF;html=1;strokeWidth=2;fontSize=12" parent="1" vertex="1">
          <mxGeometry x="850" y="890" width="70" height="33" as="geometry" />
        </mxCell>
        <mxCell id="7FCHtqIl2WXOdxlE5oJK-31" value="Proxy inverso&lt;div&gt;(proxy-zona2)&lt;/div&gt;" style="text;strokeColor=none;fillColor=none;html=1;fontSize=24;fontStyle=1;verticalAlign=middle;align=center;" parent="1" vertex="1">
          <mxGeometry x="835" y="440" width="100" height="40" as="geometry" />
        </mxCell>
        <mxCell id="7FCHtqIl2WXOdxlE5oJK-80" value="Dominio" style="fillColor=none;strokeColor=none;html=1;fontSize=12;fontStyle=0;align=left;fontColor=#596780;fontStyle=1;fontSize=11;labelBackgroundColor=light-dark(#ffffff, #006352);" parent="1" vertex="1">
          <mxGeometry x="800" y="500" width="166" height="20" as="geometry" />
        </mxCell>
        <mxCell id="7FCHtqIl2WXOdxlE5oJK-81" value="srestrepoj-proxyzona2.duckdns.org" style="rounded=1;arcSize=9;align=left;spacingLeft=5;strokeColor=#4C9AFF;html=1;strokeWidth=2;fontSize=16;" parent="1" vertex="1">
          <mxGeometry x="800" y="525" width="260" height="40" as="geometry" />
        </mxCell>
      </root>
    </mxGraphModel>
  </diagram>
</mxfile>
